<?xml version="1.0" standalone="no"?>
<!DOCTYPE svg PUBLIC "-//W3C//DTD SVG 20010904//EN"
 "http://www.w3.org/TR/2001/REC-SVG-20010904/DTD/svg10.dtd">
<svg version="1.0" xmlns="http://www.w3.org/2000/svg"
 width="16.000000pt" height="16.000000pt" viewBox="0 0 16.000000 16.000000"
 preserveAspectRatio="xMidYMid meet">
<metadata>
Created by potrace 1.11, written by Peter Selinger 2001-2013
</metadata>
<g transform="translate(0.000000,16.000000) scale(0.001543,-0.001543)"
fill="#000000" stroke="none">
<path d="M600 10303 c-64 -11 -171 -48 -235 -81 -104 -54 -230 -184 -284 -293
-23 -46 -50 -118 -61 -159 -19 -73 -19 -122 -17 -1910 l2 -1835 27 -80 c79
-231 255 -401 486 -468 l77 -22 1820 0 c1001 0 1842 4 1869 8 75 12 186 59
265 111 152 101 269 280 298 456 10 56 11 3639 1 3700 -20 129 -93 266 -197
371 -84 84 -171 137 -289 178 l-77 26 -1830 1 c-1007 1 -1841 -1 -1855 -3z"/>
<path d="M6015 10295 c-191 -42 -339 -145 -451 -315 -46 -70 -88 -178 -101
-263 -9 -57 -8 -3631 1 -3682 51 -288 293 -529 576 -573 25 -4 862 -7 1860 -7
2036 0 1860 -6 2025 74 91 45 170 109 238 194 45 57 111 181 121 228 3 13 8
35 11 49 18 72 20 274 19 1915 -1 1673 -2 1784 -19 1850 -69 272 -276 473
-545 530 -94 20 -3644 20 -3735 0z"/>
<path d="M571 4909 c-141 -28 -267 -96 -369 -201 -66 -68 -96 -112 -137 -202
-69 -149 -65 -18 -64 -2021 0 -1758 1 -1812 20 -1884 64 -248 244 -433 494
-512 58 -18 123 -19 1925 -16 1026 1 1875 5 1886 9 248 77 417 237 501 474
l28 79 2 1830 c2 1988 4 1887 -54 2025 -89 213 -293 378 -517 419 -73 13
-3647 13 -3715 0z"/>
<path d="M6000 4904 c-79 -21 -160 -54 -197 -81 -17 -13 -37 -23 -42 -23 -6 0
-48 -37 -94 -83 -83 -83 -133 -161 -170 -262 -19 -52 -21 -60 -35 -135 -9 -51
-8 -3642 1 -3679 34 -137 77 -226 149 -313 79 -94 149 -150 251 -198 132 -63
-3 -59 2037 -57 l1865 2 65 22 c104 36 188 91 280 183 117 118 178 242 197
400 9 73 8 3559 -1 3630 -24 193 -136 377 -300 490 -64 43 -185 94 -261 108
-45 9 -531 12 -1875 11 -1551 -1 -1823 -3 -1870 -15z"/>
</g>
</svg>
